<?xml version="1.0" encoding="utf-8"?>
<!-- Generator: Adobe Illustrator 21.0.2, SVG Export Plug-In . SVG Version: 6.00 Build 0)  -->
<svg version="1.1" xmlns="http://www.w3.org/2000/svg" xmlns:xlink="http://www.w3.org/1999/xlink" x="0px" y="0px"
	 viewBox="0 0 571 578" style="enable-background:new 0 0 571 578;" xml:space="preserve">
<style type="text/css">
	.st0{opacity:0.96;}
	.st1{fill:#FF006C;}
</style>
<g id="Layer_1">
</g>
<g id="Layer_2">
	<g class="st0">
		<path class="st1" d="M62.5,508.3c-5.8-4.1-11.6-8.3-18.6-13.3c2.6-0.5,4.5-1,6.5-1.2c0.9-0.1,2.1,0,2.8,0.6
			c6.5,4.8,13.5,7.9,22.7,5.6c-3,6.6,1.1,9.2,4.9,10.8c3.7,1.5,7.3-0.5,10.2-3.6c5.8-6,12-11.5,17.9-17.5c1.5-1.5,2.1-3.9,3.4-5.8
			c5.1-7.2,11-13.9,15.2-21.6c8.8-16.1,21.3-29.4,31.8-44.3c4.1-5.7,8.4-11.3,12.4-17c0.8-1.2,0.7-3,1.3-4.4c1-2.3,1.7-5.2,3.4-6.7
			c12.8-10.3,25.4-20.7,37-32.4c12.1-12.3,25.4-23.5,38.4-34.9c6.4-5.6,13.4-10.5,20-15.9c5.8-4.7,9.1-10.9,10.4-18.1
			c0.7-3.6-0.4-6.6-3.1-9.7c-2.2-2.5-2.5-6.5-3.7-9.8c-3.6,1.9-6.3-1.2-8.9-3.4c-7-6-10.7-13.4-9.7-23c0.5-5.3,0.3-10.8-0.5-16
			c-1.1-7.1-3.4-14-4.7-21.1c-0.6-3.7-0.1-7.5-0.1-10.8c-5.2-2.9-8.4-0.9-12.3,1.3c-9.9,5.6-20.1,10.7-30.5,15.3
			c-3.8,1.7-8.4,1.7-12.7,1.9c-5.2,0.3-8.7-2.9-8.7-8.2c0-9.2,0.4-18.4,0.7-27.7c0.1-3.4,0.1-6.8,0.5-10.2
			c1.2-12.2,2.5-24.4,3.7-36.5c0.2-1.8,0.5-3.6,0.2-5.3c-0.6-4.4,0.1-7.8,4.7-9.9c1.2-0.5,2.1-3,2.1-4.6c0.1-2.5-0.6-5.1-1.1-8.3
			c-8.8-0.1-17.7-1.1-26.5,2.2c-3.5,1.3-7.5,1.2-11.4,1.4c-4.2,0.2-8.5,0.2-12.7-0.1c-1.5-0.1-3.8-1.3-4-2.4c-0.4-1.5,0.3-4,1.4-5.1
			c2.5-2.3,5.5-3.9,8.6-5.9c-3.8-6.6-3.9-12.9,1.9-18.9c-3.4-2-6.8-3.5-9.7-5.7c-1.3-0.9-2.5-2.9-2.5-4.4c0-1,2.4-3.1,3.4-2.9
			c7,1.2,14.6-2.3,21.1,3.1c1.2,1,3.9,0,6,0c7.1,0,14.2,0,21.4,0c-1.2-7.9-1.3-8.7,6.3-9.8c9.2-1.3,18.5-1.1,27.9-1.6
			c2.4-11.4,5.6-23.5,15.8-32.2c2.3-2,5.1-3.4,7.6-5.1c2.5-1.7,5.4-3.1,7.4-5.3c3.6-3.8,7.9-5.4,12.9-5.5c4.4-0.1,8.8,0.4,13.1-0.1
			c11.7-1.4,19,5.5,25.9,13.2c3.9,4.4,8.3,8.7,10.5,13.9c2.2,5.1,2,11.2,2.9,17.7c3.6,0,7.8,0,11.9,0c6.3,0.1,11.1,3,14.6,8.1
			c2.8,4,5,8.2,4.6,13.3c-0.8,9.3-1.5,18.6-2.2,27.9c-0.1,1.1-0.5,2.2-1,3.2c-3.6,8.5-3.4,7.9,5.5,12c8.1,3.8,14.3,10.2,18.4,18.5
			c2.2,4.4,5.6,8.2,8,12.5c1.6,3,2.8,6.3,3.5,9.6c2.1,9.4,4,18.9,5.6,28.4c0.9,5.5,1.4,11.2,1.6,16.8c0.2,8.2,1.4,15.9,7.5,22.1
			c3.1,3.2,4.3,7.3,2.9,11.7c-3,9.8-1.5,19.4,0,29.2c1.8,12.3,2.1,24.5-1.3,37c-2.5,8.9-2.9,18.5-3.3,27.8c-0.2,3.4,3,6.8,3.5,10.4
			c1.1,7.6,2.7,15.5,1.7,23c-0.6,4.6-5,9.3-8.9,12.6c-3.7,3.2-4.9,6.8-4.9,11c-0.3,15.9-0.5,31.8-0.1,47.7
			c0.2,10.2,6.4,15.8,16.7,17.3c9.4,1.4,18.8,2.8,27.9,5.5c7.6,2.2,14.6,6.6,22.1,9.4c5.4,1.9,11.2,2.5,16.8,4.1
			c3.3,0.9,6.4,2.6,9.7,3.8c8,2.7,15.1,0.6,21.9-4.1c5.7-3.9,12.1-5.8,19.2-5.7c4.3,0.1,7.4,1.8,9.7,5.3c4.7,7.3,8.2,14.9,10.2,23.5
			c1.3,5.6,5.3,10.6,7.9,16c4.1,8.4,7.8,16.9,7.4,26.6c-0.4,7.9,0,15.9-0.1,23.9c0,6.3-3.7,11.7-9.2,13.5c-4.8,1.6-9.3,0.1-13.2-5.5
			c-4.5-6.5-9.3-13-12.4-20.2c-3.9-9-13.7-12.7-24.3-12.4c-0.5,0-0.9-0.2-1.2-0.3c0-3.9-0.1-7.7,0-11.5c0.2-4.8-1.6-8.6-5.7-11
			c-3.9-2.3-7.8-4.7-12.1-5.9c-5.8-1.6-11.3,0.1-15.7,4.4c-4.6,4.5-9.9,5.8-16,4.4c-15.8-3.6-31.6-6.9-47.4-10.8
			c-10.7-2.7-21.5-5.4-31.7-9.4c-16.8-6.7-26.2-20.1-31.1-37.1c-2.2-7.7-4.7-15.4-7.8-22.9c-4.8-11.8-9.9-23.4-15.3-34.9
			c-3.5-7.4-7.5-14.6-11.5-21.8c-0.5-1-2.9-1.9-3.7-1.5c-8.9,4-17.7,8.2-26.4,12.6c-4.4,2.3-8.5,5.2-12.9,7.6
			c-24,13.6-44.5,31.6-63.8,50.8c-11.6,11.5-22.4,23.7-33.5,35.6c-7.5,8-14.9,16.1-22.5,24.1c-1.4,1.5-3.4,3.4-5.1,3.3
			c-4.6-0.3-7.4,2.2-9.9,5.1c-5.9,6.7-14.6,11.1-17.7,20.2c-0.9,2.7-0.5,5.8-0.9,8.7c-0.4,2.5-0.4,5.6-1.9,7.4
			c-6.2,7.9-12.9,15.3-19.4,23c-2.6,3.1-4.6,1.4-6.9-0.6c-10-8.6-19.9-17.5-30.3-25.6c-7.7-6.1-16.8-10.5-24.1-17
			c-7.4-6.7-13.5-15.1-19.9-22.9c-3.8-4.7-3.9-9.3-1-12.3c2.3-2.5,10.8-2.8,14.2-0.4c4.9,3.4,9.3,7.6,14.5,10.1
			c4.8,2.3,10.4,2.9,15.7,4.1c2.8,0.6,5.7,0.6,8.5,0.9C61.7,509,62.1,508.7,62.5,508.3z M226,156.7c2.5-1.3,5.6-3.8,9.1-4.7
			c4.2-1,6-2.9,6.4-7.1c0.2-1.8,1.7-4,3.2-5.1c2.9-2.1,6.6-3,9.2-5.2c6-5.1,11.8-10.2,20-12c4.9-1,5.4-4.2,1.7-7.6
			c-1.3-1.1-3.5-2-5.1-1.8c-3.3,0.4-6.6,1.6-9.8,2.5c-6.4,1.8-10.6,0-13.6-6c-1.6-3.1-2.9-6.4-4.6-9.4c-0.8-1.4-2.3-2.3-3.4-3.4
			c-0.7,1.4-1.6,2.8-2.1,4.3c-0.6,1.9-0.4,5.3-1.5,5.7c-5.9,2.5-6.9,7.7-7.3,12.9C227.3,132.2,226.7,144.7,226,156.7z M342.7,105.8
			c2.6-11.7,5-22.7,7.7-33.6c1.2-4.9,0-9.4-4.5-11.4c-5.1-2.2-10.5-3.7-16-5c-2.6-0.6-5.1,0.1-5.8,3.6c-1.4,7-3.3,13.9-4.2,21
			c-0.4,2.7,1,5.8,2.1,8.5c1.3,3.1,3,6,5,8.7C330.9,103,335.8,106.9,342.7,105.8z"/>
	</g>
</g>
</svg>
